<svg width="22" height="22" viewBox="0 0 22 22" fill="none" xmlns="http://www.w3.org/2000/svg">
<path fill-rule="evenodd" clip-rule="evenodd" d="M11 0.25C10.439 0.25 9.98202 0.486004 9.56602 0.804004C9.17602 1.101 8.74602 1.53098 8.24302 2.03398L8.20801 2.06899C7.69301 2.58399 7.244 2.78599 6.552 2.78599C6.465 2.78599 6.35598 2.78298 6.23198 2.77998C5.91498 2.77098 5.505 2.75899 5.146 2.78999C4.621 2.83599 3.96499 2.97901 3.46699 3.48101C2.97299 3.98001 2.83301 4.633 2.78901 5.154C2.75901 5.51 2.77098 5.91698 2.77998 6.23198C2.78298 6.35598 2.78599 6.465 2.78599 6.552C2.78599 7.244 2.58399 7.69301 2.06899 8.20801L2.03398 8.24302C1.53098 8.74602 1.101 9.17602 0.804004 9.56602C0.486004 9.98202 0.25 10.439 0.25 11C0.25 11.561 0.486004 12.018 0.804004 12.434C1.101 12.824 1.53098 13.254 2.03398 13.757L2.06899 13.792C2.40299 14.126 2.56002 14.342 2.64902 14.546C2.73602 14.745 2.78599 14.997 2.78599 15.448C2.78599 15.535 2.78298 15.644 2.77998 15.768C2.77098 16.085 2.75899 16.495 2.78999 16.854C2.83599 17.379 2.97901 18.035 3.48101 18.533C3.98001 19.027 4.633 19.167 5.154 19.211C5.51 19.241 5.91698 19.229 6.23198 19.22C6.35598 19.217 6.465 19.214 6.552 19.214C6.993 19.214 7.24099 19.258 7.43599 19.339C7.63099 19.419 7.84 19.563 8.154 19.877C8.221 19.944 8.31001 20.039 8.41201 20.149C8.64201 20.395 8.94102 20.715 9.22002 20.96C9.64402 21.33 10.252 21.75 11 21.75C11.748 21.75 12.356 21.33 12.78 20.96C13.059 20.715 13.358 20.395 13.588 20.149C13.69 20.039 13.779 19.944 13.846 19.877C14.16 19.563 14.369 19.419 14.564 19.339C14.759 19.258 15.007 19.214 15.448 19.214C15.535 19.214 15.644 19.217 15.768 19.22C16.083 19.229 16.49 19.241 16.846 19.211C17.367 19.167 18.02 19.027 18.519 18.533C19.021 18.035 19.164 17.379 19.21 16.854C19.241 16.495 19.229 16.085 19.22 15.768C19.217 15.644 19.214 15.534 19.214 15.448C19.214 14.997 19.264 14.745 19.351 14.546C19.44 14.342 19.597 14.126 19.931 13.792L19.966 13.757C20.469 13.254 20.899 12.824 21.196 12.434C21.514 12.018 21.75 11.561 21.75 11C21.75 10.439 21.514 9.98202 21.196 9.56602C20.899 9.17602 20.469 8.74602 19.966 8.24302L19.931 8.20801C19.597 7.87401 19.44 7.658 19.351 7.454C19.264 7.255 19.214 7.003 19.214 6.552C19.214 6.465 19.217 6.35601 19.22 6.23301C19.229 5.91501 19.241 5.505 19.21 5.146C19.164 4.621 19.021 3.96499 18.519 3.46699C18.02 2.97299 17.367 2.83301 16.846 2.78901C16.49 2.75901 16.083 2.77098 15.768 2.77998C15.644 2.78298 15.534 2.78599 15.448 2.78599C14.755 2.78599 14.307 2.58399 13.792 2.06899L13.757 2.03398C13.254 1.53098 12.824 1.101 12.434 0.804004C12.018 0.486004 11.561 0.25 11 0.25ZM14.462 9.38701C14.952 9.13201 15.142 8.52799 14.887 8.03799C14.632 7.54799 14.028 7.35799 13.538 7.61299C12.11 8.35699 10.945 9.78098 10.175 10.903C9.958 11.22 9.766 11.523 9.6 11.797C9.487 11.701 9.377 11.615 9.277 11.54C9.061 11.377 8.86798 11.25 8.72598 11.161L8.479 11.015H8.477C7.992 10.751 7.385 10.93 7.121 11.416C6.858 11.901 7.038 12.508 7.523 12.772C7.667 12.863 7.97802 13.063 8.07402 13.137C8.40702 13.388 8.74698 13.704 8.95298 14.032C9.14698 14.34 9.49298 14.519 9.85698 14.499C10.22 14.478 10.544 14.261 10.702 13.933C10.753 13.83 10.883 13.575 10.993 13.381C11.188 13.03 11.472 12.55 11.825 12.034C12.555 10.97 13.49 9.89301 14.462 9.38701Z" fill="#76C499"/>
</svg>
